<svg version="1.1" id="Layer_1" xmlns="http://www.w3.org/2000/svg" xmlns:xlink="http://www.w3.org/1999/xlink" x="0px" y="0px"
	 width="100%" viewBox="0 0 1000 1000" enable-background="new 0 0 1000 1000" xml:space="preserve">
<path fill="#FFFFFF" opacity="1.000000" stroke="none" 
	d="
M560.000000,1001.000000 
	C373.333344,1001.000000 187.166672,1001.000000 1.000000,1001.000000 
	C1.000000,667.666687 1.000000,334.333344 1.000000,1.000000 
	C334.333344,1.000000 667.666687,1.000000 1001.000000,1.000000 
	C1001.000000,334.333344 1001.000000,667.666687 1001.000000,1001.000000 
	C854.166687,1001.000000 707.333313,1001.000000 560.000000,1001.000000 
M365.505920,197.996658 
	C356.711884,207.717438 352.570709,219.428375 352.101074,232.241501 
	C351.383484,251.821503 351.314453,271.425690 351.012451,291.020264 
	C350.930298,296.352142 351.069733,301.687408 350.987549,307.019287 
	C350.685547,326.613861 350.419342,346.209839 349.925629,365.799896 
	C349.828796,369.641418 350.066223,374.571136 347.911499,377.066620 
	C342.686279,383.118164 336.797394,389.137115 329.990570,393.167084 
	C316.917114,400.907349 302.984161,407.186951 289.478210,414.208008 
	C275.053589,421.706696 260.296906,428.684265 246.445755,437.135803 
	C232.051926,445.918457 218.041901,455.530884 204.851807,466.022278 
	C194.205078,474.490692 184.693542,484.489624 175.301056,494.399719 
	C167.417435,502.717804 159.754028,511.412292 153.191467,520.779663 
	C139.754257,539.959839 128.730927,560.473755 121.455574,582.923523 
	C116.072304,599.534912 112.432396,616.306824 112.962227,633.868652 
	C113.188286,641.361511 113.094978,648.868408 112.978683,656.366333 
	C112.783493,668.950867 115.886200,681.044495 119.561287,692.801575 
	C125.483528,711.747620 133.612946,729.920410 146.280060,745.414734 
	C155.980545,757.280273 165.936966,769.200500 177.340942,779.340515 
	C190.670334,791.192444 206.081131,800.434326 222.739304,807.395874 
	C240.060928,814.634766 257.887543,820.493713 276.553162,821.729309 
	C295.425476,822.978638 314.432465,822.627808 333.120911,818.063416 
	C362.859467,810.800171 389.693054,797.645691 412.637512,777.552002 
	C429.091187,763.142578 443.514465,746.799866 454.464294,727.405823 
	C466.958435,705.276550 474.568787,681.775879 477.937439,656.792114 
	C479.925873,642.044678 480.700928,627.112732 483.162323,612.455383 
	C486.164398,594.578491 492.885956,577.858826 502.244720,562.287292 
	C506.405243,555.364746 510.805756,548.586548 515.343933,541.349609 
	C508.039062,536.141357 500.924896,531.010681 493.748016,525.969177 
	C487.164612,521.344604 486.533752,521.576111 481.852936,528.459595 
	C468.539734,548.037476 458.092285,568.945740 451.571045,591.794128 
	C446.664856,608.983948 444.900330,626.637756 442.977631,644.294373 
	C442.022644,653.064331 441.687592,662.019043 439.594086,670.526489 
	C432.273743,700.274048 417.710907,725.904419 394.879639,746.723755 
	C382.611633,757.910706 369.157593,766.985168 354.128021,774.113281 
	C336.399414,782.521545 317.693817,786.171509 298.399536,786.821899 
	C288.414764,787.158386 278.187714,786.614868 268.382385,784.790649 
	C238.515732,779.234131 212.496719,765.451782 191.011429,744.124390 
	C182.182327,735.360107 175.092926,724.715149 167.948151,714.415100 
	C159.372314,702.052002 154.013580,688.116943 151.018204,673.375793 
	C148.179901,659.407776 145.575989,645.411194 147.945847,631.005981 
	C149.349792,622.471985 149.485580,613.676697 151.462936,605.298950 
	C159.614273,570.762939 178.771164,542.256348 202.223801,516.492249 
	C215.187393,502.251007 229.852158,489.677826 245.795074,478.766235 
	C262.701141,467.195465 280.521179,457.300446 299.209412,448.779480 
	C313.777252,442.137207 327.715729,434.106476 341.873322,426.578796 
	C345.066772,424.880859 348.008606,422.709534 350.924927,420.846405 
	C351.317963,424.674469 351.990997,428.001129 351.937164,431.315979 
	C351.781342,440.913330 351.104767,450.504333 351.037476,460.100708 
	C350.629059,518.359436 350.333282,576.618958 350.000580,634.878235 
	C349.995850,635.711548 350.035248,636.546509 349.994446,637.377869 
	C349.662506,644.139404 350.335388,651.145935 348.776672,657.613770 
	C344.684235,674.594849 334.277130,687.002441 318.162781,693.920227 
	C307.705627,698.409607 296.768921,699.629395 285.162659,698.255371 
	C273.665680,696.894104 263.602478,693.001770 255.209427,685.548340 
	C235.693558,668.217285 230.845139,646.385254 237.726593,621.784119 
	C243.094971,602.592224 255.729462,587.692749 268.495544,573.130737 
	C283.564758,555.941589 302.016663,542.906250 322.019287,532.071777 
	C326.966705,529.391968 329.730194,525.806152 329.633392,520.217651 
	C329.490112,511.943512 329.223358,503.671387 328.994354,495.398804 
	C328.954773,493.968658 328.841766,492.540558 328.756744,491.005066 
	C327.521057,491.005066 326.672211,490.897003 325.865936,491.035980 
	C325.088898,491.169952 324.351868,491.548798 323.604034,491.837708 
	C309.620392,497.239929 296.792267,504.773346 284.397766,513.105164 
	C266.054810,525.435730 250.643997,540.946716 236.042923,557.383484 
	C225.495987,569.256409 216.381439,582.011963 209.801727,596.533752 
	C198.561462,621.341797 195.956665,646.676758 205.032639,672.708862 
	C214.777222,700.658691 234.776093,718.329712 261.726135,729.046509 
	C271.766022,733.038818 282.197113,733.075989 292.736816,733.057190 
	C303.106873,733.038696 313.323853,732.967529 323.337067,729.366638 
	C344.368195,721.803345 360.844147,708.774597 373.031067,690.070740 
	C380.258972,678.977844 385.556915,666.862427 385.774994,653.828064 
	C386.652039,601.411011 386.744293,548.979858 386.982544,496.553253 
	C387.379852,409.128754 387.666656,321.703735 387.999817,234.278946 
	C388.001068,233.945618 387.982513,233.611221 388.002838,233.279129 
	C388.460785,225.801880 391.182617,219.534851 397.364502,214.915985 
	C406.903839,207.788589 417.222595,206.758133 428.051819,211.093582 
	C436.037750,214.290726 441.041443,220.766159 442.790253,228.833771 
	C444.410797,236.309860 444.578674,244.142914 444.941467,251.839752 
	C445.495331,263.590424 445.662720,275.359253 446.005371,287.120056 
	C446.041321,288.353851 446.152039,289.585480 446.304657,292.059906 
	C447.706085,290.332672 448.469147,289.623199 448.955658,288.758209 
	C457.139954,274.207672 464.329773,258.968719 473.828979,245.338181 
	C479.025330,237.881851 480.365265,230.478836 478.666443,223.111771 
	C474.423340,204.710846 463.877319,190.244629 447.015411,181.036911 
	C432.551422,173.138580 416.842834,172.021362 401.183197,175.252136 
	C387.005859,178.177109 375.072723,185.849640 365.505920,197.996658 
M742.103394,452.836700 
	C743.136963,454.754791 743.735413,457.183380 745.281006,458.500702 
	C751.288818,463.621246 757.644348,468.331116 763.774170,473.312256 
	C766.799194,475.770447 769.261353,476.225739 771.380066,472.296539 
	C772.156067,470.857391 773.251648,469.588196 774.222839,468.257080 
	C784.763611,453.810516 793.446106,438.344482 799.751404,421.585297 
	C805.457764,406.417877 808.473816,390.702820 810.166138,374.589722 
	C811.858582,358.475739 811.552368,342.433136 808.609131,326.651764 
	C804.840149,306.442719 799.270447,286.606201 787.937256,269.082153 
	C780.359436,257.364929 772.873779,245.438538 763.950806,234.773743 
	C748.274536,216.037048 728.526123,201.881317 706.564453,191.565384 
	C683.626770,180.791046 659.325195,173.938034 633.614868,174.053558 
	C622.402344,174.103928 611.008423,173.613815 600.030823,175.410080 
	C587.978271,177.382217 576.100952,181.102737 564.517944,185.128006 
	C539.373352,193.866104 517.664917,208.423584 498.751251,226.975266 
	C492.711609,232.899261 487.741791,239.988007 482.739288,246.875595 
	C477.144958,254.578049 471.481079,262.331573 466.882965,270.636230 
	C454.976105,292.141144 446.655548,315.029663 445.096252,339.726074 
	C444.191864,354.050262 443.475006,368.702118 445.446259,382.819397 
	C448.545624,405.015533 455.959381,426.058868 467.182892,445.829132 
	C480.639618,469.533112 498.258606,489.328796 520.331604,504.910248 
	C536.157837,516.082153 552.724365,526.293152 569.480652,536.038696 
	C593.257996,549.867737 617.518677,562.865234 641.562378,576.236877 
	C653.882690,583.088623 666.071411,590.258057 674.876892,601.574646 
	C678.965393,606.829041 682.256470,612.803040 685.263000,618.776123 
	C689.449402,627.093079 688.899780,636.208923 689.168945,645.283203 
	C689.526489,657.334412 684.610107,667.392212 677.882446,676.303833 
	C663.526550,695.319946 643.502686,702.597107 620.396973,698.752258 
	C584.944519,692.852844 564.930603,658.584961 572.493103,624.938354 
	C575.314758,612.384521 581.117676,601.531372 590.126526,592.386414 
	C592.165833,590.316284 593.289124,588.078186 590.376038,586.190063 
	C582.376038,581.004944 574.188110,576.110779 566.131531,571.011292 
	C563.564758,569.386719 561.658936,570.033264 560.294739,572.413391 
	C554.746887,582.092957 548.511108,591.474792 543.962402,601.609741 
	C535.448303,620.580200 534.942627,640.632019 538.918213,660.788513 
	C542.927612,681.116394 553.590698,697.791626 568.968445,711.286682 
	C579.198181,720.263977 591.308044,726.099365 604.417725,730.159851 
	C615.753540,733.670959 627.213135,733.173279 638.692444,732.886597 
	C644.735718,732.735657 650.980530,732.195251 656.738464,730.492249 
	C687.409729,721.420837 708.143433,701.554626 719.181152,671.555054 
	C724.495728,657.110352 724.803955,642.308655 723.149536,627.148193 
	C721.565430,612.631042 715.793945,599.830688 708.152039,587.894226 
	C699.323181,574.103760 687.059875,563.491577 673.080933,555.124329 
	C661.073975,547.937500 648.584106,541.561951 636.387085,534.686890 
	C616.590271,523.528137 596.890198,512.197815 577.090210,501.044586 
	C556.917725,489.681549 537.686462,476.896881 521.267578,460.537506 
	C506.915436,446.237396 495.695068,429.526459 488.263275,410.510529 
	C481.360565,392.848358 476.922058,374.657623 478.079895,355.543121 
	C478.615936,346.693359 479.628204,337.832092 481.087921,329.086761 
	C484.627014,307.883759 494.250580,289.104950 506.168732,271.632812 
	C513.643982,260.673981 523.213379,251.403427 533.474243,242.719086 
	C549.923279,228.797272 568.447144,219.231827 588.999268,213.617661 
	C606.474548,208.844009 624.316650,205.578125 642.496521,209.080948 
	C653.729858,211.245346 664.981873,213.673035 675.897644,217.044266 
	C694.399963,222.758530 710.688293,232.790802 725.048401,245.668472 
	C741.303833,260.245819 754.942627,276.967651 763.619141,297.254456 
	C771.506653,315.696533 777.103271,334.730988 776.955566,355.027893 
	C776.912292,360.972626 776.475647,366.925232 775.976440,372.853760 
	C774.709167,387.902069 770.554016,402.229980 764.466370,415.977295 
	C758.708008,428.980927 751.337646,441.054626 742.103394,452.836700 
M722.033203,345.396759 
	C720.005554,337.654205 718.635498,329.661987 715.810974,322.221954 
	C710.229126,307.519165 700.951599,295.081512 689.147522,284.796112 
	C664.850403,263.624878 635.789185,260.123840 605.713013,265.549377 
	C583.472351,269.561432 565.286865,282.275970 551.437622,300.288300 
	C534.919189,321.772034 531.861633,346.751465 534.186523,372.794556 
	C534.618469,377.632751 536.010193,382.493195 537.649353,387.097565 
	C546.123108,410.899902 561.451233,429.394867 583.203857,441.915863 
	C613.614075,459.420197 644.778687,475.617828 675.116760,493.241760 
	C691.137390,502.548462 706.507141,513.129517 721.415222,524.156677 
	C738.408875,536.726379 751.212402,553.440918 760.339050,572.278015 
	C768.857056,589.858826 774.743225,608.456909 776.264038,628.416199 
	C777.446472,643.935486 776.956238,659.161255 773.301453,674.106750 
	C767.792480,696.634094 757.596252,716.796692 742.232178,734.561829 
	C728.942993,749.927856 713.932922,762.911804 695.848694,771.865845 
	C680.502258,779.464355 664.377014,785.523193 646.895874,785.956116 
	C633.850525,786.279236 620.554016,787.542786 607.791382,785.606018 
	C588.481750,782.675781 569.949402,775.968628 553.630127,764.866882 
	C544.273743,758.501831 535.020447,751.479370 527.392395,743.210693 
	C518.338318,733.396240 511.122589,721.892761 503.015289,711.193176 
	C501.004150,708.538940 498.627197,706.161804 496.191437,703.399963 
	C490.653687,715.244080 485.398987,726.199280 480.499390,737.311096 
	C479.866913,738.745361 480.542725,741.340820 481.509918,742.806030 
	C491.348846,757.711243 503.484161,770.652161 517.478333,781.604675 
	C531.252014,792.384766 546.411499,801.017822 562.572998,807.957153 
	C589.989197,819.729065 618.453064,824.736816 648.021606,820.820557 
	C662.109192,818.954590 676.430603,816.409302 689.744751,811.650146 
	C718.624878,801.326782 743.922058,785.031128 764.700500,761.971741 
	C776.044983,749.381958 785.317017,735.508850 793.047119,720.588074 
	C804.632690,698.225586 810.878601,674.300781 811.931580,649.150085 
	C812.687561,631.093079 810.997864,613.218994 806.356201,595.667847 
	C801.563721,577.546143 793.867371,560.756958 784.366882,544.627625 
	C771.662720,523.059265 755.172363,504.850952 735.098816,490.268738 
	C720.371094,479.569977 704.612549,470.191956 688.823486,461.073608 
	C659.014099,443.858459 628.770630,427.396667 598.880066,410.319794 
	C588.253113,404.248505 579.355591,395.925385 574.382568,384.524200 
	C570.615967,375.889008 567.002319,367.027069 568.885986,357.024017 
	C569.954346,351.350830 569.440430,345.346252 570.779236,339.764374 
	C573.537415,328.264771 580.079529,319.023254 589.088501,311.276001 
	C596.945923,304.519043 605.498901,299.732300 615.955383,299.024780 
	C620.318054,298.729523 624.718445,298.767151 629.092346,298.920654 
	C634.416870,299.107544 639.859436,298.965851 645.023926,300.048981 
	C656.049805,302.361450 664.791626,308.697540 672.437134,316.869720 
	C691.645569,337.401276 693.640930,365.380402 679.430298,388.826080 
	C674.649780,396.713257 667.778992,403.333496 661.539185,410.927612 
	C662.120300,411.366119 663.279846,412.501282 664.653687,413.234741 
	C672.370483,417.354340 680.247742,421.186523 687.839478,425.520966 
	C691.172424,427.423828 693.097473,426.649323 695.467773,424.104248 
	C709.189087,409.371338 718.225342,392.109528 721.716919,372.407074 
	C723.217102,363.941956 722.086548,355.010651 722.033203,345.396759 
z"/>
<path fill="#00897B" opacity="1.000000" stroke="none" 
	d="
M365.759583,197.736389 
	C375.072723,185.849640 387.005859,178.177109 401.183197,175.252136 
	C416.842834,172.021362 432.551422,173.138580 447.015411,181.036911 
	C463.877319,190.244629 474.423340,204.710846 478.666443,223.111771 
	C480.365265,230.478836 479.025330,237.881851 473.828979,245.338181 
	C464.329773,258.968719 457.139954,274.207672 448.955658,288.758209 
	C448.469147,289.623199 447.706085,290.332672 446.304657,292.059906 
	C446.152039,289.585480 446.041321,288.353851 446.005371,287.120056 
	C445.662720,275.359253 445.495331,263.590424 444.941467,251.839752 
	C444.578674,244.142914 444.410797,236.309860 442.790253,228.833771 
	C441.041443,220.766159 436.037750,214.290726 428.051819,211.093582 
	C417.222595,206.758133 406.903839,207.788589 397.364502,214.915985 
	C391.182617,219.534851 388.460785,225.801880 388.002838,233.279129 
	C387.982513,233.611221 388.001068,233.945618 387.999817,234.278946 
	C387.666656,321.703735 387.379852,409.128754 386.982544,496.553253 
	C386.744293,548.979858 386.652039,601.411011 385.774994,653.828064 
	C385.556915,666.862427 380.258972,678.977844 373.031067,690.070740 
	C360.844147,708.774597 344.368195,721.803345 323.337067,729.366638 
	C313.323853,732.967529 303.106873,733.038696 292.736816,733.057190 
	C282.197113,733.075989 271.766022,733.038818 261.726135,729.046509 
	C234.776093,718.329712 214.777222,700.658691 205.032639,672.708862 
	C195.956665,646.676758 198.561462,621.341797 209.801727,596.533752 
	C216.381439,582.011963 225.495987,569.256409 236.042923,557.383484 
	C250.643997,540.946716 266.054810,525.435730 284.397766,513.105164 
	C296.792267,504.773346 309.620392,497.239929 323.604034,491.837708 
	C324.351868,491.548798 325.088898,491.169952 325.865936,491.035980 
	C326.672211,490.897003 327.521057,491.005066 328.756744,491.005066 
	C328.841766,492.540558 328.954773,493.968658 328.994354,495.398804 
	C329.223358,503.671387 329.490112,511.943512 329.633392,520.217651 
	C329.730194,525.806152 326.966705,529.391968 322.019287,532.071777 
	C302.016663,542.906250 283.564758,555.941589 268.495544,573.130737 
	C255.729462,587.692749 243.094971,602.592224 237.726593,621.784119 
	C230.845139,646.385254 235.693558,668.217285 255.209427,685.548340 
	C263.602478,693.001770 273.665680,696.894104 285.162659,698.255371 
	C296.768921,699.629395 307.705627,698.409607 318.162781,693.920227 
	C334.277130,687.002441 344.684235,674.594849 348.776672,657.613770 
	C350.335388,651.145935 349.662506,644.139404 349.994446,637.377869 
	C350.035248,636.546509 349.995850,635.711548 350.000580,634.878235 
	C350.333282,576.618958 350.629059,518.359436 351.037476,460.100708 
	C351.104767,450.504333 351.781342,440.913330 351.937164,431.315979 
	C351.990997,428.001129 351.317963,424.674469 350.924927,420.846405 
	C348.008606,422.709534 345.066772,424.880859 341.873322,426.578796 
	C327.715729,434.106476 313.777252,442.137207 299.209412,448.779480 
	C280.521179,457.300446 262.701141,467.195465 245.795074,478.766235 
	C229.852158,489.677826 215.187393,502.251007 202.223801,516.492249 
	C178.771164,542.256348 159.614273,570.762939 151.462936,605.298950 
	C149.485580,613.676697 149.349792,622.471985 147.945847,631.005981 
	C145.575989,645.411194 148.179901,659.407776 151.018204,673.375793 
	C154.013580,688.116943 159.372314,702.052002 167.948151,714.415100 
	C175.092926,724.715149 182.182327,735.360107 191.011429,744.124390 
	C212.496719,765.451782 238.515732,779.234131 268.382385,784.790649 
	C278.187714,786.614868 288.414764,787.158386 298.399536,786.821899 
	C317.693817,786.171509 336.399414,782.521545 354.128021,774.113281 
	C369.157593,766.985168 382.611633,757.910706 394.879639,746.723755 
	C417.710907,725.904419 432.273743,700.274048 439.594086,670.526489 
	C441.687592,662.019043 442.022644,653.064331 442.977631,644.294373 
	C444.900330,626.637756 446.664856,608.983948 451.571045,591.794128 
	C458.092285,568.945740 468.539734,548.037476 481.852936,528.459595 
	C486.533752,521.576111 487.164612,521.344604 493.748016,525.969177 
	C500.924896,531.010681 508.039062,536.141357 515.343933,541.349609 
	C510.805756,548.586548 506.405243,555.364746 502.244720,562.287292 
	C492.885956,577.858826 486.164398,594.578491 483.162323,612.455383 
	C480.700928,627.112732 479.925873,642.044678 477.937439,656.792114 
	C474.568787,681.775879 466.958435,705.276550 454.464294,727.405823 
	C443.514465,746.799866 429.091187,763.142578 412.637512,777.552002 
	C389.693054,797.645691 362.859467,810.800171 333.120911,818.063416 
	C314.432465,822.627808 295.425476,822.978638 276.553162,821.729309 
	C257.887543,820.493713 240.060928,814.634766 222.739304,807.395874 
	C206.081131,800.434326 190.670334,791.192444 177.340942,779.340515 
	C165.936966,769.200500 155.980545,757.280273 146.280060,745.414734 
	C133.612946,729.920410 125.483528,711.747620 119.561287,692.801575 
	C115.886200,681.044495 112.783493,668.950867 112.978683,656.366333 
	C113.094978,648.868408 113.188286,641.361511 112.962227,633.868652 
	C112.432396,616.306824 116.072304,599.534912 121.455574,582.923523 
	C128.730927,560.473755 139.754257,539.959839 153.191467,520.779663 
	C159.754028,511.412292 167.417435,502.717804 175.301056,494.399719 
	C184.693542,484.489624 194.205078,474.490692 204.851807,466.022278 
	C218.041901,455.530884 232.051926,445.918457 246.445755,437.135803 
	C260.296906,428.684265 275.053589,421.706696 289.478210,414.208008 
	C302.984161,407.186951 316.917114,400.907349 329.990570,393.167084 
	C336.797394,389.137115 342.686279,383.118164 347.911499,377.066620 
	C350.066223,374.571136 349.828796,369.641418 349.925629,365.799896 
	C350.419342,346.209839 350.685547,326.613861 350.987549,307.019287 
	C351.069733,301.687408 350.930298,296.352142 351.012451,291.020264 
	C351.314453,271.425690 351.383484,251.821503 352.101074,232.241501 
	C352.570709,219.428375 356.711884,207.717438 365.759583,197.736389 
z"/>
<path fill="#FF8A80" opacity="1.000000" stroke="none" 
	d="
M742.252808,452.491821 
	C751.337646,441.054626 758.708008,428.980927 764.466370,415.977295 
	C770.554016,402.229980 774.709167,387.902069 775.976440,372.853760 
	C776.475647,366.925232 776.912292,360.972626 776.955566,355.027893 
	C777.103271,334.730988 771.506653,315.696533 763.619141,297.254456 
	C754.942627,276.967651 741.303833,260.245819 725.048401,245.668472 
	C710.688293,232.790802 694.399963,222.758530 675.897644,217.044266 
	C664.981873,213.673035 653.729858,211.245346 642.496521,209.080948 
	C624.316650,205.578125 606.474548,208.844009 588.999268,213.617661 
	C568.447144,219.231827 549.923279,228.797272 533.474243,242.719086 
	C523.213379,251.403427 513.643982,260.673981 506.168732,271.632812 
	C494.250580,289.104950 484.627014,307.883759 481.087921,329.086761 
	C479.628204,337.832092 478.615936,346.693359 478.079895,355.543121 
	C476.922058,374.657623 481.360565,392.848358 488.263275,410.510529 
	C495.695068,429.526459 506.915436,446.237396 521.267578,460.537506 
	C537.686462,476.896881 556.917725,489.681549 577.090210,501.044586 
	C596.890198,512.197815 616.590271,523.528137 636.387085,534.686890 
	C648.584106,541.561951 661.073975,547.937500 673.080933,555.124329 
	C687.059875,563.491577 699.323181,574.103760 708.152039,587.894226 
	C715.793945,599.830688 721.565430,612.631042 723.149536,627.148193 
	C724.803955,642.308655 724.495728,657.110352 719.181152,671.555054 
	C708.143433,701.554626 687.409729,721.420837 656.738464,730.492249 
	C650.980530,732.195251 644.735718,732.735657 638.692444,732.886597 
	C627.213135,733.173279 615.753540,733.670959 604.417725,730.159851 
	C591.308044,726.099365 579.198181,720.263977 568.968445,711.286682 
	C553.590698,697.791626 542.927612,681.116394 538.918213,660.788513 
	C534.942627,640.632019 535.448303,620.580200 543.962402,601.609741 
	C548.511108,591.474792 554.746887,582.092957 560.294739,572.413391 
	C561.658936,570.033264 563.564758,569.386719 566.131531,571.011292 
	C574.188110,576.110779 582.376038,581.004944 590.376038,586.190063 
	C593.289124,588.078186 592.165833,590.316284 590.126526,592.386414 
	C581.117676,601.531372 575.314758,612.384521 572.493103,624.938354 
	C564.930603,658.584961 584.944519,692.852844 620.396973,698.752258 
	C643.502686,702.597107 663.526550,695.319946 677.882446,676.303833 
	C684.610107,667.392212 689.526489,657.334412 689.168945,645.283203 
	C688.899780,636.208923 689.449402,627.093079 685.263000,618.776123 
	C682.256470,612.803040 678.965393,606.829041 674.876892,601.574646 
	C666.071411,590.258057 653.882690,583.088623 641.562378,576.236877 
	C617.518677,562.865234 593.257996,549.867737 569.480652,536.038696 
	C552.724365,526.293152 536.157837,516.082153 520.331604,504.910248 
	C498.258606,489.328796 480.639618,469.533112 467.182892,445.829132 
	C455.959381,426.058868 448.545624,405.015533 445.446259,382.819397 
	C443.475006,368.702118 444.191864,354.050262 445.096252,339.726074 
	C446.655548,315.029663 454.976105,292.141144 466.882965,270.636230 
	C471.481079,262.331573 477.144958,254.578049 482.739288,246.875595 
	C487.741791,239.988007 492.711609,232.899261 498.751251,226.975266 
	C517.664917,208.423584 539.373352,193.866104 564.517944,185.128006 
	C576.100952,181.102737 587.978271,177.382217 600.030823,175.410080 
	C611.008423,173.613815 622.402344,174.103928 633.614868,174.053558 
	C659.325195,173.938034 683.626770,180.791046 706.564453,191.565384 
	C728.526123,201.881317 748.274536,216.037048 763.950806,234.773743 
	C772.873779,245.438538 780.359436,257.364929 787.937256,269.082153 
	C799.270447,286.606201 804.840149,306.442719 808.609131,326.651764 
	C811.552368,342.433136 811.858582,358.475739 810.166138,374.589722 
	C808.473816,390.702820 805.457764,406.417877 799.751404,421.585297 
	C793.446106,438.344482 784.763611,453.810516 774.222839,468.257080 
	C773.251648,469.588196 772.156067,470.857391 771.380066,472.296539 
	C769.261353,476.225739 766.799194,475.770447 763.774170,473.312256 
	C757.644348,468.331116 751.288818,463.621246 745.281006,458.500702 
	C743.735413,457.183380 743.136963,454.754791 742.252808,452.491821 
z"/>
<path fill="#FF8A80" opacity="1.000000" stroke="none" 
	d="
M722.092163,345.843933 
	C722.086548,355.010651 723.217102,363.941956 721.716919,372.407074 
	C718.225342,392.109528 709.189087,409.371338 695.467773,424.104248 
	C693.097473,426.649323 691.172424,427.423828 687.839478,425.520966 
	C680.247742,421.186523 672.370483,417.354340 664.653687,413.234741 
	C663.279846,412.501282 662.120300,411.366119 661.539185,410.927612 
	C667.778992,403.333496 674.649780,396.713257 679.430298,388.826080 
	C693.640930,365.380402 691.645569,337.401276 672.437134,316.869720 
	C664.791626,308.697540 656.049805,302.361450 645.023926,300.048981 
	C639.859436,298.965851 634.416870,299.107544 629.092346,298.920654 
	C624.718445,298.767151 620.318054,298.729523 615.955383,299.024780 
	C605.498901,299.732300 596.945923,304.519043 589.088501,311.276001 
	C580.079529,319.023254 573.537415,328.264771 570.779236,339.764374 
	C569.440430,345.346252 569.954346,351.350830 568.885986,357.024017 
	C567.002319,367.027069 570.615967,375.889008 574.382568,384.524200 
	C579.355591,395.925385 588.253113,404.248505 598.880066,410.319794 
	C628.770630,427.396667 659.014099,443.858459 688.823486,461.073608 
	C704.612549,470.191956 720.371094,479.569977 735.098816,490.268738 
	C755.172363,504.850952 771.662720,523.059265 784.366882,544.627625 
	C793.867371,560.756958 801.563721,577.546143 806.356201,595.667847 
	C810.997864,613.218994 812.687561,631.093079 811.931580,649.150085 
	C810.878601,674.300781 804.632690,698.225586 793.047119,720.588074 
	C785.317017,735.508850 776.044983,749.381958 764.700500,761.971741 
	C743.922058,785.031128 718.624878,801.326782 689.744751,811.650146 
	C676.430603,816.409302 662.109192,818.954590 648.021606,820.820557 
	C618.453064,824.736816 589.989197,819.729065 562.572998,807.957153 
	C546.411499,801.017822 531.252014,792.384766 517.478333,781.604675 
	C503.484161,770.652161 491.348846,757.711243 481.509918,742.806030 
	C480.542725,741.340820 479.866913,738.745361 480.499390,737.311096 
	C485.398987,726.199280 490.653687,715.244080 496.191437,703.399963 
	C498.627197,706.161804 501.004150,708.538940 503.015289,711.193176 
	C511.122589,721.892761 518.338318,733.396240 527.392395,743.210693 
	C535.020447,751.479370 544.273743,758.501831 553.630127,764.866882 
	C569.949402,775.968628 588.481750,782.675781 607.791382,785.606018 
	C620.554016,787.542786 633.850525,786.279236 646.895874,785.956116 
	C664.377014,785.523193 680.502258,779.464355 695.848694,771.865845 
	C713.932922,762.911804 728.942993,749.927856 742.232178,734.561829 
	C757.596252,716.796692 767.792480,696.634094 773.301453,674.106750 
	C776.956238,659.161255 777.446472,643.935486 776.264038,628.416199 
	C774.743225,608.456909 768.857056,589.858826 760.339050,572.278015 
	C751.212402,553.440918 738.408875,536.726379 721.415222,524.156677 
	C706.507141,513.129517 691.137390,502.548462 675.116760,493.241760 
	C644.778687,475.617828 613.614075,459.420197 583.203857,441.915863 
	C561.451233,429.394867 546.123108,410.899902 537.649353,387.097565 
	C536.010193,382.493195 534.618469,377.632751 534.186523,372.794556 
	C531.861633,346.751465 534.919189,321.772034 551.437622,300.288300 
	C565.286865,282.275970 583.472351,269.561432 605.713013,265.549377 
	C635.789185,260.123840 664.850403,263.624878 689.147522,284.796112 
	C700.951599,295.081512 710.229126,307.519165 715.810974,322.221954 
	C718.635498,329.661987 720.005554,337.654205 722.092163,345.843933 
z"/>
</svg>